<svg width="21" height="20" viewBox="0 0 21 20" fill="none" xmlns="http://www.w3.org/2000/svg">
<g clip-path="url(#clip0_2_226)">
<path d="M9.37587 0C9.79274 0 10.2092 0 10.6261 0C10.9666 0.0446228 11.3099 0.0755455 11.6477 0.135434C14.2397 0.595753 16.3609 1.8585 17.9501 3.95381C19.7358 6.30786 20.3542 8.96839 19.818 11.8732C19.3886 14.1975 18.2417 16.1307 16.4317 17.6444C14.1763 19.5299 11.5647 20.2807 8.65094 19.9072C6.65623 19.6516 4.89911 18.832 3.39446 17.496C1.65652 15.953 0.571093 14.0342 0.155788 11.7444C0.0888541 11.3745 0.051277 10.9991 0 10.6265C0 10.2096 0 9.79313 0 9.37626C0.0438399 9.04198 0.0763284 8.70574 0.133085 8.37381C0.486936 6.29337 1.39975 4.49359 2.8813 2.99168C4.37734 1.47529 6.17751 0.52373 8.2787 0.154223C8.64194 0.0896369 9.00988 0.0504942 9.37587 0ZM9.17076 10.8312C9.17076 10.9404 9.17076 11.0175 9.17076 11.095C9.17076 12.1754 9.16919 13.2557 9.17193 14.3364C9.17272 14.7267 9.36726 15.0222 9.69488 15.1518C10.2476 15.3698 10.8249 14.9725 10.8288 14.3568C10.8359 13.2635 10.8312 12.1699 10.8312 11.0766C10.8312 11.0011 10.8312 10.9259 10.8312 10.8316C10.9373 10.8316 11.014 10.8316 11.0903 10.8316C12.1707 10.8316 13.251 10.8332 14.3317 10.8304C14.7236 10.8296 15.0191 10.6374 15.1502 10.3114C15.3714 9.75986 14.9745 9.1778 14.3611 9.1735C13.2678 9.16645 12.1742 9.17115 11.0809 9.17115C11.005 9.17115 10.9294 9.17115 10.8316 9.17115C10.8316 9.06899 10.8316 8.99266 10.8316 8.91633C10.8316 7.83599 10.83 6.75565 10.8324 5.67492C10.8332 5.29837 10.6766 5.01928 10.3329 4.86427C9.78217 4.61611 9.17859 5.01458 9.17428 5.63578C9.16645 6.73569 9.17193 7.8356 9.17154 8.93551C9.17154 9.00988 9.17154 9.08425 9.17154 9.17076C9.05764 9.17076 8.98013 9.17076 8.90263 9.17076C7.82855 9.17076 6.75487 9.17311 5.68079 9.16919C5.41149 9.16841 5.17898 9.24552 5.00245 9.45141C4.77855 9.7125 4.73001 10.0139 4.86388 10.3263C5.00479 10.6554 5.2694 10.8281 5.63108 10.8292C6.72434 10.832 7.81799 10.8304 8.91124 10.8308C8.98757 10.8312 9.06429 10.8312 9.17076 10.8312Z" fill="#1E1E1E"/>
</g>
<defs>
<clipPath id="clip0_2_226">
<rect width="20.0051" height="20" fill="white"/>
</clipPath>
</defs>
</svg>
