<svg width="22" height="20" viewBox="0 0 22 20" fill="none" xmlns="http://www.w3.org/2000/svg">
<path d="M0 13.9502C0 11.415 0 8.87924 0 6.34404C0.00842083 6.3251 0.0210521 6.30668 0.0236836 6.2872C0.144733 5.47301 0.868924 4.82935 1.84837 4.86671C2.47046 4.8904 3.09466 4.87092 3.7178 4.87092C3.79201 4.87092 3.86569 4.87092 3.95305 4.87092C3.95305 4.76514 3.95305 4.68882 3.95305 4.61304C3.95305 3.36675 3.95305 2.12047 3.95305 0.874188C3.95305 0.270519 4.22147 0 4.82145 0C8.77766 0 12.7333 0 16.6896 0C17.2927 0 17.5622 0.268414 17.5622 0.869977C17.5627 2.1231 17.5622 3.37675 17.5622 4.62988C17.5622 4.70461 17.5622 4.77882 17.5622 4.87092C17.6632 4.87092 17.7385 4.87092 17.8143 4.87092C18.4516 4.87092 19.0884 4.86987 19.7258 4.87145C20.8084 4.87408 21.5142 5.5788 21.5147 6.66035C21.5163 8.98503 21.5157 11.3097 21.5147 13.6339C21.5142 14.7196 20.8142 15.4228 19.7316 15.4275C19.0874 15.4301 18.4432 15.428 17.799 15.428C17.7248 15.428 17.6506 15.428 17.5616 15.428C17.5616 15.5338 17.5616 15.6101 17.5616 15.6864C17.5616 16.8417 17.5622 17.9969 17.5611 19.1521C17.5606 19.7232 17.2827 19.9995 16.7085 19.9995C12.7386 20 8.76872 20 4.79882 19.9995C4.22831 19.9995 3.95305 19.7211 3.95253 19.1453C3.952 17.9901 3.95253 16.8348 3.95253 15.6796C3.95253 15.5996 3.95253 15.5196 3.95253 15.4275C3.84042 15.4275 3.76411 15.4275 3.6878 15.4275C3.0436 15.4275 2.39941 15.4238 1.75522 15.4285C1.26207 15.4322 0.835241 15.2759 0.483145 14.9275C0.211047 14.658 0.0794716 14.3165 0 13.9502ZM5.39828 12.7065V18.029C5.39828 18.3195 5.63406 18.5553 5.92458 18.5553H15.5912C15.8817 18.5553 16.1175 18.3195 16.1175 18.029V12.7065H5.39828ZM5.39828 4.85829H16.1175V1.97205C16.1175 1.68153 15.8817 1.44575 15.5912 1.44575H5.92458C5.63406 1.44575 5.39828 1.68153 5.39828 1.97205V4.85829ZM15.9238 9.07818C16.2248 9.07818 16.5254 9.08239 16.8264 9.07713C17.2422 9.06976 17.5559 8.76398 17.5601 8.37031C17.5643 7.97821 17.2511 7.65506 16.839 7.6498C16.2306 7.6419 15.6217 7.64138 15.0128 7.65032C14.6091 7.65611 14.3054 7.96874 14.3007 8.35715C14.2959 8.7503 14.6091 9.06766 15.0212 9.0766C15.3217 9.08292 15.6227 9.07766 15.9238 9.07818Z" fill="#1E1E1E"/>
<path d="M10.7581 15.2133C9.72919 15.2133 8.69974 15.2175 7.67082 15.2112C7.14242 15.208 6.79874 14.7159 6.98137 14.2428C7.09189 13.9565 7.35083 13.7838 7.69135 13.7828C8.51028 13.7802 9.3292 13.7817 10.1487 13.7817C11.3739 13.7817 12.5986 13.7786 13.8238 13.7833C14.367 13.7854 14.7191 14.2744 14.5343 14.7554C14.4243 15.0422 14.168 15.2117 13.8249 15.2128C12.8023 15.2149 11.7802 15.2138 10.7581 15.2133Z" fill="#1E1E1E"/>
<path d="M10.7793 16.0475C11.8014 16.0475 12.8234 16.0432 13.8455 16.0496C14.3745 16.0527 14.7176 16.5453 14.5339 17.0185C14.4229 17.3043 14.1645 17.4764 13.8234 17.4785C13.1376 17.4816 12.4513 17.4795 11.7656 17.4795C10.4145 17.4795 9.06353 17.4816 7.71251 17.4785C7.16042 17.4769 6.80516 17.0116 6.97621 16.5248C7.08147 16.2259 7.33936 16.0496 7.69251 16.0485C8.72143 16.0459 9.75035 16.0475 10.7793 16.0475Z" fill="#1E1E1E"/>
</svg>
