<svg width="20" height="20" viewBox="0 0 20 20" fill="none" xmlns="http://www.w3.org/2000/svg">
<path d="M20 9.80431C20 9.93457 20 10.0648 20 10.1951C19.9119 10.7222 19.6062 11.1136 19.2282 11.4683C18.8962 11.7796 18.5818 12.1104 18.2595 12.4327C17.7954 12.8975 17.5642 13.4565 17.5624 14.1145C17.5605 14.7719 17.5673 15.4299 17.5361 16.0855C17.5012 16.8181 16.8194 17.4994 16.0873 17.5349C15.4446 17.5661 14.7994 17.563 14.1555 17.5605C13.4681 17.5581 12.8871 17.7954 12.4058 18.2852C12.0909 18.6057 11.7631 18.9133 11.4555 19.2405C11.1045 19.6135 10.7173 19.915 10.1957 20C10.0654 20 9.93518 20 9.80492 20C9.28327 19.9156 8.89677 19.6135 8.54575 19.2411C8.22896 18.9047 7.89384 18.5855 7.56727 18.2589C7.1025 17.7948 6.54293 17.5642 5.88552 17.5618C5.22872 17.5593 4.5707 17.5667 3.91451 17.5355C3.1831 17.5006 2.49756 16.8138 2.46514 16.0861C2.43518 15.4171 2.4468 14.7462 2.43885 14.076C2.43151 13.4485 2.20646 12.9085 1.76859 12.4615C1.36742 12.0524 0.957683 11.6518 0.554674 11.2451C-0.181015 10.5021 -0.183461 9.50465 0.548559 8.76285C0.941783 8.36473 1.33868 7.96967 1.73557 7.57461C2.20646 7.10556 2.43824 6.54049 2.44007 5.87574C2.44252 5.21833 2.43518 4.56091 2.46514 3.90472C2.49756 3.18983 3.18677 2.5 3.90472 2.46576C4.57375 2.43396 5.24462 2.44313 5.91488 2.43824C6.55088 2.43334 7.09455 2.20707 7.54648 1.76248C7.94521 1.36987 8.33843 0.970526 8.73471 0.575468C9.50037 -0.18713 10.496 -0.190188 11.2598 0.568741C11.6524 0.958907 12.0426 1.35091 12.434 1.74169C12.8987 2.20585 13.4583 2.4364 14.1157 2.43824C14.7725 2.44068 15.4305 2.43334 16.0867 2.46453C16.8181 2.49939 17.5 3.18188 17.5361 3.9139C17.5673 4.55663 17.5636 5.20181 17.5618 5.84577C17.5593 6.53315 17.7966 7.11351 18.2871 7.59479C18.6026 7.90485 18.9053 8.22897 19.2282 8.53168C19.6056 8.88577 19.9126 9.27654 20 9.80431ZM8.66194 11.4084C7.81984 10.5657 6.99425 9.7401 6.19374 8.93897C5.80724 9.32669 5.4238 9.71135 5.05993 10.0758C6.26284 11.2775 7.48104 12.4945 8.69435 13.7066C10.7767 11.623 12.8737 9.52483 14.9609 7.4364C14.5786 7.05602 14.1891 6.66769 13.7898 6.27018C12.0988 7.96478 10.3975 9.66916 8.66194 11.4084Z" fill="#1E1E1E"/>
</svg>
