<svg width="17" height="20" viewBox="0 0 17 20" fill="none" xmlns="http://www.w3.org/2000/svg">
<path d="M9.65148 0C9.77358 0.0386121 9.89776 0.0720063 10.0178 0.115836C10.7436 0.378816 11.2325 1.05766 11.2507 1.82885C11.256 2.04279 11.2513 2.25724 11.2513 2.49987C11.3306 2.49987 11.3989 2.49987 11.4673 2.49987C12.515 2.49987 13.5633 2.49883 14.611 2.50039C15.5873 2.50196 16.2489 3.16671 16.2515 4.14558C16.2526 4.52283 16.2541 4.9006 16.251 5.27785C16.2474 5.67754 15.9886 5.93582 15.5868 5.93582C10.6142 5.93686 5.64157 5.93686 0.668959 5.93582C0.268229 5.93582 0.00420597 5.67545 0.00577132 5.27733C0.00785846 4.7832 -0.0239704 4.28333 0.0407309 3.79703C0.143001 3.03052 0.791579 2.50561 1.56643 2.50144C2.634 2.4957 3.70105 2.49987 4.76862 2.49987C4.83906 2.49987 4.9095 2.49987 5.00342 2.49987C5.00342 2.30629 5.0029 2.12627 5.00342 1.94626C5.00655 0.96478 5.57791 0.254109 6.53799 0.0333942C6.56147 0.0281764 6.58287 0.0114793 6.60478 0C7.62069 0 8.63609 0 9.65148 0ZM10.0026 2.4957C10.0026 2.28437 10.0084 2.07253 10.0011 1.86173C9.9896 1.51996 9.73079 1.25489 9.38902 1.25228C8.54999 1.24602 7.71096 1.24707 6.87193 1.25176C6.58234 1.25333 6.32249 1.44326 6.28127 1.7245C6.24475 1.97548 6.27345 2.23585 6.27345 2.4957C7.51269 2.4957 8.74149 2.4957 10.0026 2.4957Z" fill="#1E1E1E"/>
<path d="M8.12792 7.18652C10.393 7.18652 12.6581 7.18652 14.9231 7.18652C15.2273 7.18652 15.2685 7.23714 15.2539 7.54134C15.1814 9.02999 15.1136 10.5186 15.0416 12.0073C14.9409 14.1002 14.849 16.1936 14.7306 18.2859C14.6758 19.2507 13.8728 19.9823 12.9033 19.9953C12.1483 20.0052 11.3932 19.9979 10.6382 19.9979C8.23645 19.9979 5.83468 19.9995 3.4329 19.9969C2.47491 19.9958 1.70058 19.378 1.54665 18.4602C1.47934 18.0579 1.48247 17.6436 1.46264 17.2345C1.37759 15.4667 1.29672 13.6984 1.21323 11.9301C1.14383 10.4607 1.07391 8.9919 1.00191 7.52307C0.988342 7.24548 1.03739 7.18705 1.31341 7.18705C3.58474 7.18652 5.85607 7.18652 8.12792 7.18652ZM4.3789 12.8009C4.3789 12.9376 4.3789 13.0743 4.3789 13.2111C4.3789 14.4284 4.37733 15.6452 4.38046 16.8625C4.38151 17.1944 4.61735 17.4568 4.93095 17.4944C5.24402 17.532 5.543 17.3217 5.61188 17.007C5.63118 16.9194 5.62805 16.826 5.62805 16.7352C5.62909 14.3334 5.62857 11.9316 5.62857 9.53038C5.62857 9.27001 5.63222 9.00964 5.62701 8.74927C5.62179 8.4769 5.46108 8.25305 5.21741 8.16383C4.79841 8.01042 4.38099 8.31201 4.37942 8.77901C4.37681 10.1195 4.3789 11.4599 4.3789 12.8009ZM8.75354 12.8108C8.75354 11.4766 8.75406 10.1424 8.75302 8.80823C8.75302 8.49725 8.61057 8.26975 8.36116 8.16957C7.93382 7.9979 7.50491 8.30993 7.50387 8.79832C7.50178 10.432 7.50334 12.0657 7.50334 13.6994C7.50334 14.7341 7.50491 15.7694 7.50178 16.8041C7.50126 17.0102 7.55083 17.1918 7.70788 17.3306C7.90616 17.5059 8.13523 17.5534 8.37838 17.4422C8.63405 17.3253 8.75406 17.1151 8.75354 16.8333C8.75302 15.4923 8.75354 14.1513 8.75354 12.8108ZM11.878 12.8041C11.878 12.7326 11.878 12.6611 11.878 12.5891C11.878 11.3264 11.8785 10.0636 11.8775 8.80093C11.8769 8.49307 11.7314 8.26453 11.4793 8.16696C11.0499 7.99999 10.6288 8.31254 10.6283 8.80458C10.6267 10.9131 10.6278 13.0222 10.6278 15.1307C10.6278 15.7036 10.6262 16.276 10.6288 16.8489C10.6304 17.1375 10.7833 17.3603 11.0353 17.4568C11.4553 17.6175 11.8759 17.3055 11.8769 16.8265C11.8795 15.4855 11.878 14.1445 11.878 12.8041Z" fill="#1E1E1E"/>
</svg>
